<?xml version="1.0" encoding="UTF-8"?>
<svg width="269px" height="26px" viewBox="0 0 269 26" version="1.1" xmlns="http://www.w3.org/2000/svg" xmlns:xlink="http://www.w3.org/1999/xlink">
    <!-- Generator: Sketch 64 (93537) - https://sketch.com -->
    <title>形状结合</title>
    <desc>Created with Sketch.</desc>
    <g id="页面-1" stroke="none" stroke-width="1" fill="none" fill-rule="evenodd">
        <g id="编组-3备份" fill="#FFFFFF">
            <path d="M178.428,0.382 L178.428,23.444 L179.546,23.444 L179.546,0.382 L185.11,0.382 L185.11,23.444 L191.194,23.444 L191.194,25.186 L166.962,25.186 L166.962,23.444 L172.864,23.444 L172.864,0.382 L178.428,0.382 Z M229.934,0.798 L229.934,2.566 L229.18,2.566 L229.18,18.79 L229.934,18.79 L229.934,20.558 L229.18,20.558 L229.18,25.134 L224.734,25.134 L224.734,20.558 L218.806,20.558 L218.806,18.79 L219.404,18.79 L219.404,2.566 L218.806,2.566 L218.806,0.798 L229.934,0.798 Z M267.01,0.876 L267.169859,0.883515625 C267.536703,0.918588542 267.860417,1.07641667 268.141,1.357 C268.461667,1.67766667 268.622,2.06333333 268.622,2.514 L268.622,2.514 L268.622,25.082 L260.744,25.082 L260.744,23.314 L262.642,23.314 L262.642,3.19 L262.63654,3.08626 C262.60378,2.79142 262.4236,2.644 262.096,2.644 L262.096,2.644 L251.462,2.644 L251.462,25.082 L245.69,25.082 L245.69,0.876 L267.01,0.876 Z M216.544,1.11 L216.544,2.878 L203.284,2.878 L202.92,7.246 L213.008,7.246 C213.493333,7.246 213.896333,7.41933333 214.217,7.766 C214.537667,8.11266667 214.680667,8.52866667 214.646,9.014 L214.646,9.014 L213.502,23.34 L217.272,23.34 L217.272,25.056 L192.858,25.056 L192.858,23.34 L207.054,23.34 L207.47,18.218 L195.302,18.218 L196.81,2.878 L193.612,2.878 L193.612,1.11 L216.544,1.11 Z M242.908,5.192 L242.908,6.986 L239.502,6.986 L239.502,12.056 L243.35,12.056 L243.35,13.798 L239.814,13.798 L243.168,25.03 L238.124,25.03 L236.772,19.986 L235.55,25.03 L230.532,25.03 L233.522,13.798 L230.246,13.798 L230.246,12.056 L234.094,12.056 L234.094,6.986 L230.74,6.986 L230.74,5.192 L242.908,5.192 Z M8.61635081,9.28259948 C8.70093541,10.010103 9.26597294,10.5676721 10.0140957,10.6560552 L10.1660733,10.6673874 L20.3560293,10.6673874 C22.2984896,10.6673874 23.7367595,12.2220078 23.5669269,14.1371956 C23.5642732,14.1528725 23.5563123,14.1737749 23.5563123,14.1946774 L23.5559806,14.2103542 L23.5559806,14.2103542 L23.5536587,14.2260311 L22.9512837,21.1839372 C22.9486301,21.2126781 22.9406692,21.2466446 22.9406692,21.2753855 C22.781628,23.124208 21.176937,24.6336588 19.315517,24.7322346 L19.1220893,24.7373553 L0.021229075,24.7373553 L0.329050662,21.1813244 L14.0324186,21.1813244 C14.9273917,21.1565715 15.7223353,20.470525 15.8712235,19.5986054 L15.8899626,19.4516459 L16.1951306,15.9870633 L16.1977842,15.9557096 L16.1984476,15.9377465 L16.1984476,15.9377465 L16.2030915,15.9217431 C16.2610734,15.0256808 15.6149532,14.2993987 14.7356891,14.2290107 L14.5949891,14.2234183 L4.45810575,14.2234183 C2.72575636,14.2234183 1.39313774,12.9916562 1.24305593,11.3715195 L1.23128635,11.1899489 L8.61635081,9.28259948 Z M50.2837177,1.08360984 C52.2235245,1.08360984 53.6644479,2.63039182 53.497269,4.54296684 L53.4922934,4.58967078 L53.4922934,4.58967078 L53.4893081,4.6344151 L52.6507596,14.2234183 C52.648106,14.2521592 52.648106,14.2835129 52.6401451,14.3148665 C52.4836691,16.1636891 50.8815432,17.6706983 49.0202915,17.7691113 L48.8268725,17.7742235 L33.9691736,17.7742235 L33.3614913,24.7347425 L26.1515667,24.7347425 L27.9321554,4.29997575 L40.2821698,1.11757633 L40.4281197,1.08360984 L50.2837177,1.08360984 Z M80.4847305,1.07838422 L80.1742553,4.62918949 L64.7619469,4.62918949 L64.2391809,10.6647746 L77.9743924,10.6647746 L77.6639172,14.2208055 L63.9233984,14.2208055 L63.4696269,19.4490331 C63.4165543,20.0708813 63.7031468,20.616958 64.1728401,20.9174309 C64.374074,21.0524259 64.612164,21.1384308 64.8702176,21.1678854 L65.0273103,21.1787116 L78.7280246,21.1787116 L78.420203,24.7347425 L58.9053758,24.7347425 C57.0281435,24.7347425 55.6206128,23.2836964 55.6808693,21.456687 L55.6918246,21.2727727 L55.6918246,21.2623214 L56.3101214,14.2234183 L56.617943,10.6673874 L57.1433626,4.63180229 L57.4538378,1.07838422 L80.4847305,1.07838422 Z M108.923624,2.81316104 L109.088255,2.99095924 L108.976803,3.04321539 L109.027222,3.0458282 L97.377767,11.6158365 L108.379735,24.7347425 L99.2432719,24.7347425 L91.9245483,15.6238831 L89.785719,17.1994059 L89.0931205,24.7347425 L81.4771898,24.7347425 L83.6584773,1.08099703 L91.2691006,1.08099703 L90.4517813,9.94102694 L101.482939,1.97457716 C103.947332,0.35777194 107.02274,0.841689466 108.923624,2.81316104 Z M164.57,1.526 L164.57,3.294 L156.614,3.294 L156.614,22.95 L165.402,22.95 L165.402,24.718 L140.936,24.718 L140.936,22.95 L150.062,22.95 L150.062,3.294 L142.288,3.294 L142.288,1.526 L164.57,1.526 Z M253.906,5.764 L254.4,8.208 L254.92,5.764 L256.948,5.764 L255.44,13.46 L256.948,21.156 L254.92,21.156 L254.4,18.608 L253.906,21.156 L251.592,21.156 L253.334,13.148 L251.852,5.764 L253.906,5.764 Z M259.288,5.764 L259.782,8.338 L260.302,5.764 L262.304,5.764 L260.796,13.46 L262.304,21.156 L260.302,21.156 L259.782,18.582 L259.288,21.156 L257.234,21.156 L258.768,13.46 L257.234,5.764 L259.288,5.764 Z M170.966,4.152 L172.422,18.79 L167.664,18.79 L166.364,4.152 L170.966,4.152 Z M191.74,4.152 L190.44,18.79 L185.63,18.79 L187.112,4.152 L191.74,4.152 Z M224.734,14.604 L223.694,14.604 L223.694,18.79 L224.734,18.79 L224.734,14.604 Z M207.626,9.144 L202.764,9.144 L202.166,16.268 L207.626,16.268 L208.172,9.742 C208.206667,9.34333333 208.024667,9.144 207.626,9.144 L207.626,9.144 Z M124,8 C126.209139,8 128,9.790861 128,12 C128,14.209139 126.209139,16 124,16 C121.790861,16 120,14.209139 120,12 C120,9.790861 121.790861,8 124,8 Z M44.5730966,4.6344151 L35.1155437,4.6344151 L34.2796488,14.2234183 L43.7372017,14.2234183 C44.6346888,14.2011407 45.4273831,13.5128794 45.5782839,12.6429414 L45.5973994,12.4963526 L46.1254727,6.36670641 C46.210389,5.42609575 45.520444,4.66576879 44.5730966,4.6344151 Z M224.734,8.52 L223.694,8.52 L223.694,12.836 L224.734,12.836 L224.734,8.52 Z M24.7875987,1.07838422 L1.56299065,7.57121063 L2.16536565,1.07838422 L24.7875987,1.07838422 Z M224.734,2.566 L223.694,2.566 L223.694,6.778 L224.734,6.778 L224.734,2.566 Z M235.134,0.382 L236.33,4.464 L231.65,4.464 L230.454,0.382 L235.134,0.382 Z M243.168,0.382 L241.92,4.464 L237.266,4.464 L238.488,0.382 L243.168,0.382 Z" id="形状结合"></path>
        </g>
    </g>
</svg>