<?xml version="1.0" encoding="utf-8"?>
<svg version="1.1" xmlns:xlink="http://www.w3.org/1999/xlink" width="32px" height="25px" xmlns="http://www.w3.org/2000/svg">
  <g transform="matrix(1 0 0 1 -643 -275 )">
    <path d="M 26.9732142857143 4.58170572916667  C 27.8244047619048 5.35753038194444  28.25 6.29340277777778  28.25 7.38932291666667  C 28.25 8.48524305555556  27.8244047619048 9.42111545138889  26.9732142857143 10.1969401041667  C 26.1220238095238 10.9727647569444  25.0952380952381 11.3606770833333  23.8928571428571 11.3606770833333  C 22.6904761904762 11.3606770833333  21.6636904761905 10.9727647569444  20.8125 10.1969401041667  C 19.9613095238095 9.42111545138889  19.5357142857143 8.48524305555556  19.5357142857143 7.38932291666667  C 19.5357142857143 6.29340277777778  19.9613095238095 5.35753038194444  20.8125 4.58170572916667  C 21.6636904761905 3.80588107638889  22.6904761904762 3.41796875  23.8928571428571 3.41796875  C 25.0952380952381 3.41796875  26.1220238095238 3.80588107638889  26.9732142857143 4.58170572916667  Z M 13.1964285714286 22.3470052083333  C 14.0654761904762 21.5549045138889  14.5 20.5946180555556  14.5 19.4661458333333  C 14.5 18.3376736111111  14.0654761904762 17.3773871527778  13.1964285714286 16.5852864583333  C 12.327380952381 15.7931857638889  11.2738095238095 15.3971354166667  10.0357142857143 15.3971354166667  C 9.71428571428571 15.3971354166667  9.39285714285714 15.4296875  9.07142857142857 15.4947916666667  L 10.9285714285714 16.1783854166667  C 11.8452380952381 16.5147569444444  12.4970238095238 17.0925564236111  12.8839285714286 17.9117838541667  C 13.2708333333333 18.7310112847222  13.2797619047619 19.5529513888889  12.9107142857143 20.3776041666667  C 12.5416666666667 21.2131076388889  11.9047619047619 21.8044704861111  11 22.1516927083333  C 10.0952380952381 22.4989149305556  9.19047619047619 22.5043402777778  8.28571428571429 22.16796875  C 8.03571428571429 22.0811631944444  7.66666666666667 21.9482421875  7.17857142857143 21.7692057291667  C 6.69047619047619 21.5901692708333  6.32738095238095 21.4572482638889  6.08928571428571 21.3704427083333  C 6.4702380952381 22.021484375  7.01190476190476 22.5450303819444  7.71428571428571 22.9410807291667  C 8.41666666666667 23.3371310763889  9.19047619047619 23.53515625  10.0357142857143 23.53515625  C 11.2738095238095 23.53515625  12.327380952381 23.1391059027778  13.1964285714286 22.3470052083333  Z M 27.7232142857143 10.9212239583333  C 28.7886904761905 9.95551215277778  29.3214285714286 8.78363715277778  29.3214285714286 7.40559895833333  C 29.3214285714286 6.03841145833333  28.7886904761905 4.86924913194444  27.7232142857143 3.89811197916667  C 26.6577380952381 2.92697482638889  25.375 2.44140625  23.875 2.44140625  C 22.3630952380952 2.44140625  21.0744047619048 2.92697482638889  20.0089285714286 3.89811197916667  C 18.9434523809524 4.86924913194444  18.4107142857143 6.03841145833333  18.4107142857143 7.40559895833333  C 18.4107142857143 8.78363715277778  18.9434523809524 9.95551215277778  20.0089285714286 10.9212239583333  C 21.0744047619048 11.8869357638889  22.3630952380952 12.3697916666667  23.875 12.3697916666667  C 25.375 12.3697916666667  26.6577380952381 11.8869357638889  27.7232142857143 10.9212239583333  Z M 29.6160714285714 2.1728515625  C 31.2053571428571 3.62141927083333  32 5.36566840277778  32 7.40559895833333  C 32 9.45638020833333  31.2053571428571 11.2033420138889  29.6160714285714 12.646484375  C 28.0267857142857 14.0896267361111  26.1130952380952 14.8111979166667  23.875 14.8111979166667  L 16.0714285714286 20.0032552083333  C 15.9285714285714 21.4029947916667  15.2797619047619 22.5857204861111  14.125 23.5514322916667  C 12.9702380952381 24.5171440972222  11.6071428571429 25  10.0357142857143 25  C 8.5952380952381 25  7.32142857142857 24.5876736111111  6.21428571428571 23.7630208333333  C 5.10714285714286 22.9383680555556  4.40476190476191 21.8967013888889  4.10714285714286 20.6380208333333  L 0 19.140625  L 0 12.158203125  L 6.94642857142857 14.7135416666667  C 7.88690476190476 14.1927083333333  8.91666666666667 13.9322916666667  10.0357142857143 13.9322916666667  C 10.1904761904762 13.9322916666667  10.3988095238095 13.9431423611111  10.6607142857143 13.96484375  L 15.7321428571429 7.34049479166667  C 15.7559523809524 5.31141493055556  16.5625 3.58072916666667  18.1517857142857 2.1484375  C 19.7410714285714 0.716145833333334  21.6488095238095 0  23.875 0  C 26.1130952380952 0  28.0267857142857 0.724283854166666  29.6160714285714 2.1728515625  Z " fill-rule="nonzero" fill="#cae3ff" stroke="none" transform="matrix(1 0 0 1 643 275 )" />
  </g>
</svg>